<svg xmlns="http://www.w3.org/2000/svg" width="512" height="512" viewBox="0 0 64 64"><g xmlns="http://www.w3.org/2000/svg" fill="#fff"><path d="M8 17c1.654 0 3-1.346 3-3s-1.346-3-3-3-3 1.346-3 3 1.346 3 3 3zm0-4a1.001 1.001 0 11-1 1c0-.551.448-1 1-1zm8 4c1.654 0 3-1.346 3-3s-1.346-3-3-3-3 1.346-3 3 1.346 3 3 3zm0-4a1.001 1.001 0 11-1 1c0-.551.448-1 1-1zm8 4c1.654 0 3-1.346 3-3s-1.346-3-3-3-3 1.346-3 3 1.346 3 3 3zm0-4a1.001 1.001 0 11-1 1c0-.551.448-1 1-1z" data-original="#000000"/><path d="M60 7H4c-1.654 0-3 1.346-3 3v44c0 1.654 1.346 3 3 3h56c1.654 0 3-1.346 3-3V10c0-1.654-1.346-3-3-3zM4 9h56c.552 0 1 .449 1 1v9H3v-9c0-.551.448-1 1-1zM3 54V21h8v2H7v2h4v2H5v2h6v2H7v2h4v2H5v2h6v2H7v2h4v2H5v2h6v2H7v2h4v2H5v2h6v2H4c-.552 0-1-.449-1-1zm24 1h-8V45h8zm14 0h-8V37h8zm14 0h-8V27h8zm5 0h-3V25H45v30h-2V35H31v20h-2V43H17v12h-4V21h48v33c0 .551-.448 1-1 1z" data-original="#000000"/><path d="M15 25v2h16.485l4.702 6.581 1.626-1.162L32.515 25z" data-original="#000000"/></g></svg>