<svg xmlns="http://www.w3.org/2000/svg" width="512" height="512"><path d="M504.899 297.472c-7.174-10.023-19.124-16.759-31.189-17.578-9.847-.668-18.77 2.662-25.118 9.381a442.14 442.14 0 00-4.486 4.827c-7.023-6.433-16.225-10.573-25.504-11.204-9.851-.666-18.77 2.662-25.118 9.381-13.818 14.628-38.283 43.199-57.496 65.944a39.762 39.762 0 00-8.024-3.621c-9.185-3.955-135.785-58.023-191.903-58.023-90.65 0-132.295 48.723-134.024 50.798-2.651 3.181-2.221 7.899.952 10.561 3.174 2.661 7.909 2.244 10.58-.922.096-.113 9.825-11.504 29.697-22.729 18.317-10.346 49.284-22.678 92.795-22.678 53.913 0 184.971 56.371 186.289 56.94.242.105.49.197.742.276a24.388 24.388 0 0114.428 12.034c3.045 5.806 3.646 12.452 1.692 18.712-1.838 5.887-5.949 10.997-11.316 14.036-6.006 3.401-13.092 3.815-19.673 2.013l-81.995-22.583a7.514 7.514 0 10-3.992 14.49l81.881 22.551c16.143 4.979 34.207-1.124 43.965-14.921a39.813 39.813 0 005.477-11.11 39.737 39.737 0 001.765-10.009l21.992-2.315a7.52 7.52 0 004.989-2.665c.542-.651 54.466-65.387 77.212-89.464 9.455-10.009 26.334-2.914 33.161 6.624 10.497 14.666-2.548 30.678-6.796 35.237-20.876 22.399-59.157 68.544-66.037 76.861l-155.801 77.901-149.112-62.784a7.511 7.511 0 00-2.917-.589H7.811a7.516 7.516 0 000 15.03h102.686l150.899 63.536a7.5 7.5 0 006.277-.205l160.313-80.157a7.517 7.517 0 002.435-1.938c.44-.533 44.258-53.594 66.455-77.409 16.342-17.532 19.416-38.313 8.023-54.229zm-132.187 79.624l-19.58 2.061a40.136 40.136 0 00-5.913-10.938c16.366-19.374 42.962-50.555 57.192-65.617 4.112-4.352 9.439-4.959 13.173-4.708 5.892.401 11.932 3.18 16.475 7.383-22.547 25.452-53.243 62.113-61.347 71.819z" fill="#fff" data-original="#000000" xmlns="http://www.w3.org/2000/svg"/><path d="M424.625 152.297h-64.626V67.131a7.515 7.515 0 10-15.03 0v92.681a7.515 7.515 0 007.515 7.515h51.827l-148.015 126.87-148.015-126.87h51.827a7.516 7.516 0 007.515-7.515V15.029H344.97v17.534a7.515 7.515 0 1015.03 0V7.515A7.515 7.515 0 00352.485 0H160.109a7.516 7.516 0 00-7.515 7.515v144.783H87.968c-6.815 0-10.078 8.774-4.891 13.22L251.406 309.8c2.78 2.383 7.001 2.383 9.781 0l168.329-144.282c5.187-4.447 1.925-13.221-4.891-13.221z" fill="#fff" data-original="#000000" xmlns="http://www.w3.org/2000/svg"/><path d="M309.704 50.295a7.515 7.515 0 00-10.628 0l-96.188 96.188c-4.629 4.628-1.257 12.828 5.314 12.828a7.485 7.485 0 005.313-2.201l96.188-96.188a7.513 7.513 0 00.001-10.627zm-13.329 61.924c-12.983 0-23.546 10.563-23.546 23.546 0 12.983 10.563 23.546 23.546 23.546 12.983 0 23.546-10.563 23.546-23.546 0-12.983-10.563-23.546-23.546-23.546zm0 32.063c-4.696 0-8.517-3.82-8.517-8.517s3.82-8.517 8.517-8.517c4.696 0 8.517 3.82 8.517 8.517s-3.821 8.517-8.517 8.517zm-80.157-96.188c-12.983 0-23.546 10.563-23.546 23.546 0 12.983 10.563 23.546 23.546 23.546 12.983 0 23.546-10.563 23.546-23.546 0-12.983-10.562-23.546-23.546-23.546zm0 32.063c-4.696 0-8.517-3.82-8.517-8.517s3.82-8.517 8.517-8.517 8.517 3.82 8.517 8.517-3.821 8.517-8.517 8.517z" fill="#fff" data-original="#000000" xmlns="http://www.w3.org/2000/svg"/></svg>