<svg xmlns="http://www.w3.org/2000/svg" width="512" height="512" viewBox="0 0 64 64"><g xmlns="http://www.w3.org/2000/svg" data-name="Support service" fill="#fff"><path d="M61.148 44.9a3.995 3.995 0 00-5.458-1.469l-9.751 5.629a3.964 3.964 0 00-2.259-1.629l-14.92-4a7 7 0 00-3.51-.03L20 44.719V43a1 1 0 00-1-1h-8a1 1 0 00-1 1v1H3a1 1 0 00-1 1v14a1 1 0 001 1h7v1a1 1 0 001 1h8a1 1 0 001-1v-1.382l1.286.643a7.027 7.027 0 003.13.739h14.977a7.011 7.011 0 003.5-.938l16.8-9.7a4.011 4.011 0 001.455-5.462zM4 58V46h6v12zm14 2h-6V44h6zm40.69-11.366l-16.8 9.7a5 5 0 01-2.5.67H24.416a5.027 5.027 0 01-2.235-.528L20 57.382v-10.6l5.734-1.434a5.025 5.025 0 012.508.021l14.92 4a2 2 0 11-1.035 3.863L30.2 50.034a1 1 0 00-.517 1.932l11.925 3.2a4.043 4.043 0 001.042.138 3.952 3.952 0 003.965-4.317l10.072-5.815a2.035 2.035 0 012.726.732 2.008 2.008 0 01-.723 2.73zM29 31h3.753c.057.144.114.283.174.418l-2.654 2.655a1 1 0 000 1.414l4.24 4.24a1 1 0 001.414 0l2.654-2.654c.136.059.275.117.419.174V41a1 1 0 001 1h6a1 1 0 001-1v-3.753c.144-.057.283-.115.419-.174l2.654 2.654a1.029 1.029 0 001.414 0l4.24-4.24a1 1 0 000-1.414l-2.654-2.655c.06-.135.117-.274.174-.418H57a1 1 0 001-1v-6a1 1 0 00-1-1h-3.753a11.751 11.751 0 00-.174-.419l2.654-2.654a1 1 0 000-1.414l-4.24-4.24a1 1 0 00-1.414 0l-2.654 2.654a13.958 13.958 0 00-.419-.174V13a1 1 0 00-1-1h-6a1 1 0 00-1 1v3.753c-.144.057-.283.115-.419.174l-2.654-2.654a1.029 1.029 0 00-1.414 0l-4.24 4.24a1 1 0 000 1.414l2.654 2.654c-.06.136-.117.275-.174.419H29a1 1 0 00-1 1v6a1 1 0 001 1zm1-6h3.46a1 1 0 00.952-.694 8.225 8.225 0 01.605-1.446 1 1 0 00-.17-1.187L32.4 19.22l2.825-2.826 2.453 2.453a1 1 0 001.188.17 8.112 8.112 0 011.446-.605A1 1 0 0041 17.46V14h4v3.46a1 1 0 00.693.952 8.112 8.112 0 011.446.605 1 1 0 001.188-.17l2.453-2.453 2.825 2.826-2.452 2.453a1 1 0 00-.17 1.187 8.225 8.225 0 01.605 1.446 1 1 0 00.952.694H56v4h-3.46a1 1 0 00-.952.694 8.225 8.225 0 01-.605 1.446 1 1 0 00.17 1.187l2.452 2.453-2.825 2.826-2.453-2.453a1 1 0 00-1.188-.17 8.112 8.112 0 01-1.446.605 1 1 0 00-.693.952V40h-4v-3.46a1 1 0 00-.693-.952 8.112 8.112 0 01-1.446-.605 1 1 0 00-1.188.17l-2.453 2.453-2.82-2.826 2.452-2.453a1 1 0 00.17-1.187 8.225 8.225 0 01-.605-1.446A1 1 0 0033.46 29H30z" data-original="#000000"/><path d="M43 33a6 6 0 116-6 6.006 6.006 0 01-6 6zm0-10a4 4 0 104 4 4 4 0 00-4-4zm-25 4h-4a1 1 0 01-1-1v-1.756l-1.243 1.243a1 1 0 01-1.414 0l-2.83-2.83a1 1 0 010-1.414L8.756 20H7a1 1 0 01-1-1v-4a1 1 0 011-1h1.756l-1.243-1.243a1 1 0 010-1.414l2.83-2.83a1 1 0 011.414 0L13 9.756V8a1 1 0 011-1h4a1 1 0 011 1v1.756l1.243-1.243a1 1 0 011.414 0l2.83 2.83a1 1 0 010 1.414L23.244 14H25a1 1 0 011 1v4a1 1 0 01-1 1h-1.756l1.243 1.243a1 1 0 010 1.414l-2.83 2.83a1 1 0 01-1.414 0L19 24.244V26a1 1 0 01-1 1zm-3-2h2v-2.35a1 1 0 01.713-.958 2.306 2.306 0 00.4-.168 1 1 0 011.171.179l1.663 1.663 1.416-1.416-1.663-1.663a1 1 0 01-.179-1.171 2.234 2.234 0 00.169-.406 1 1 0 01.96-.71H24v-2h-2.35a1 1 0 01-.957-.71 2.234 2.234 0 00-.169-.406 1 1 0 01.179-1.171l1.663-1.663-1.416-1.416-1.663 1.666a1 1 0 01-1.171.179 2.306 2.306 0 00-.4-.168A1 1 0 0117 11.35V9h-2v2.35a1 1 0 01-.713.958 2.306 2.306 0 00-.4.168 1 1 0 01-1.171-.179l-1.666-1.663-1.416 1.416 1.666 1.663a1 1 0 01.179 1.171 2.234 2.234 0 00-.169.406 1 1 0 01-.957.71H8v2h2.35a1 1 0 01.957.71 2.234 2.234 0 00.169.406 1 1 0 01-.179 1.171L9.634 21.95l1.416 1.416 1.663-1.666a1 1 0 011.171-.179 2.306 2.306 0 00.4.168 1 1 0 01.716.961z" data-original="#000000"/><path d="M16 21a4 4 0 114-4 4 4 0 01-4 4zm0-6a2 2 0 102 2 2 2 0 00-2-2z" data-original="#000000"/></g></svg>