<svg xmlns="http://www.w3.org/2000/svg" viewBox="0 0 512 512"><path d="M439 164h-82l15-12a55 55 0 000-77c-21-21-56-21-77 0s-41 58-37 89h-2c4-31-26-77-37-89s-56-21-77 0a55 55 0 000 77l15 12H73a26 26 0 00-26 26v65a13 13 0 0013 13h13v158a26 26 0 0026 26h314a26 26 0 0026-26V269h13a13 13 0 0013-13v-66a26 26 0 00-26-26zM155 89a32 32 0 0146 0c20 20 40 73 34 80h-6c-21 0-61-22-74-35a33 33 0 010-45zm86 346H91V266h150zm2-191H63v-57h180zm68-155c12-12 33-12 46 0a33 33 0 010 46c-13 13-53 35-73 35h-6c-7-8 13-60 33-81zm110 346H271V266h150zm28-191H269v-57h180z" fill="#fff"/></svg>