<svg xmlns="http://www.w3.org/2000/svg" width="512" height="512" viewBox="0 0 64 64"><g xmlns="http://www.w3.org/2000/svg" fill="#fff"><path d="M62 32a30 30 0 00-60 0 29.726 29.726 0 001.83 10.3A6.965 6.965 0 002 47v8a7.008 7.008 0 007 7h46a7.008 7.008 0 007-7v-8a6.965 6.965 0 00-1.83-4.7A29.726 29.726 0 0062 32zm-7 28H9a5.011 5.011 0 01-5-4.98l3.67 2.78a1 1 0 001.21 0l4.66-3.54 4.66 3.54a1 1 0 001.21 0l4.67-3.54 4.67 3.54a1 1 0 001.21 0l4.66-3.54 4.67 3.54a1.015 1.015 0 001.21 0l4.67-3.54 4.67 3.54a1 1 0 001.21 0l4.67-3.55 3.79 2.87A4.992 4.992 0 0155 60zm5-5.01l-3.67-2.79a1 1 0 00-1.21 0l-4.68 3.55-4.67-3.55a1 1 0 00-1.21 0l-4.66 3.54-4.67-3.54a1 1 0 00-1.21 0l-4.67 3.54-4.67-3.54a1 1 0 00-1.21 0l-4.66 3.54-4.67-3.54a1 1 0 00-1.21 0l-4.66 3.54L4 52.5v-4.49l3.67 2.79a1 1 0 001.21 0l4.66-3.54 4.66 3.54a1 1 0 001.21 0l4.67-3.54 4.67 3.54a1 1 0 001.21 0l4.66-3.54 4.67 3.54a1.015 1.015 0 001.21 0l4.67-3.54 4.67 3.54a1 1 0 001.21 0l4.67-3.55L60 50.5zm0-7l-3.67-2.79a1 1 0 00-1.21 0l-4.68 3.55-4.67-3.55a1 1 0 00-1.21 0l-4.66 3.54-4.67-3.54a1 1 0 00-1.21 0l-4.67 3.54-4.67-3.54a1 1 0 00-1.21 0l-4.66 3.54-4.67-3.54a1 1 0 00-1.21 0l-4.66 3.54-4.06-3.08A4.991 4.991 0 019 42h46a5 5 0 015 5zm-35.8-18.2h.06a.987.987 0 00.92-.62 1 1 0 00-.25-1.13l-5.95-5.31a16.234 16.234 0 013.75-3.74l5.31 5.94a1.039 1.039 0 00.75.33 1.016 1.016 0 001-1.06l-.44-7.97c.25-.04.51-.09.77-.12a15.765 15.765 0 013.76 0c.26.03.52.08.77.12l-.44 7.97a1.016 1.016 0 001 1.06 1.039 1.039 0 00.75-.33l5.31-5.94a16.234 16.234 0 013.75 3.74l-5.95 5.31a1 1 0 00-.25 1.13.987.987 0 00.92.62h.06l7.96-.44A15.453 15.453 0 0148 32a15.63 15.63 0 01-.23 2.65l-7.97-.44a1.008 1.008 0 00-.73 1.75L43.59 40h-6.8l-.84-.93a1 1 0 00-1.74.73l.01.2h-4.44l.01-.2a1 1 0 00-1.74-.73l-.84.93h-6.8l4.52-4.04a1 1 0 00.25-1.13 1.014 1.014 0 00-.98-.62l-7.97.44A15.63 15.63 0 0116 32a15.453 15.453 0 01.24-2.65zm-7.5-2.42a16.607 16.607 0 01.78-2.07c.13-.29.28-.57.43-.85l3.56 3.18zm7.75-9.46a16.193 16.193 0 012.92-1.21l.26 4.77zm11.92 3.56l.26-4.77a16.193 16.193 0 012.92 1.21zm9.72 2.98c.15.28.3.56.43.85a16.607 16.607 0 01.78 2.07l-4.77.26zm1.22 12.18a15.54 15.54 0 01-1.22 2.92l-3.56-3.18zm-29.4 2.92a15.54 15.54 0 01-1.22-2.92l4.78-.26zm40.62 1.41A7.039 7.039 0 0055 40h-6.89A18 18 0 0050 32a17.457 17.457 0 00-.35-3.5 17.2 17.2 0 00-1.31-4.04 18.12 18.12 0 00-14.22-10.33 17.689 17.689 0 00-4.24 0 18.12 18.12 0 00-14.22 10.33 17.273 17.273 0 00-1.31 4.03A17.631 17.631 0 0014 32a18 18 0 001.89 8H9a7.039 7.039 0 00-3.53.96A28 28 0 1160 32a27.82 27.82 0 01-1.47 8.96z" data-original="#000000"/><path d="M32 37a5 5 0 10-5-5 5.006 5.006 0 005 5zm0-8a3 3 0 11-3 3 3 3 0 013-3z" data-original="#000000"/></g></svg>