<svg version="1.2" baseProfile="tiny" xmlns="http://www.w3.org/2000/svg" viewBox="0 0 512 512"><path fill="#FFF" d="M453 139l-48 62-79 22c-20.1 5.8-33.9 24.1-34 45v30c0 26 20 47 46 47h7c7.3 31.8 39 51.6 70.7 44.3 22-5.1 39.2-22.3 44.3-44.3h42v-21h-41c0-32.6-26.4-59-59-59s-59 26.4-59 59h-5c-14 0-25-12-25-26v-30c0-11.1 7.3-20.9 18-24l83-23 6-4 50-65c7.3-9 18.4-14.2 30-14h2v-22h-2c-18.4-.1-35.8 8.4-47 23zm-51 153c21 0 38 17 38 38s-17 38-38 38-38-17-38-38 17-38 38-38zm-285.3 97.3c22-5.1 39.2-22.3 44.3-44.3h13c26 0 46-21 46-47v-34c.4-18.5-10.2-35.4-27-43l-42-19-37-59c-10.8-17.1-29.8-27.3-50-27H10v22h54c12.9-.3 25 6.1 32 17l39 62 5 4 45 20c9.1 4 15 13 15 23v35c-2 13-12 25-26 25h-12c0-32.6-26.4-59-59-59s-59 26.4-59 59H10v21h36c7.3 31.8 39 51.6 70.7 44.3zM104 292c21 0 38 17 38 38s-17 38-38 38h-1 1c-21 0-38-17-38-38s17-38 38-38zm261.5 107.5l-.5.5c-50.2 60-139.4 68.4-200 19h4c6.1 0 11-4.9 11-11s-4.9-11-11-11h-30c-6-.6-11.4 3.9-12 9.9V438c0 6.1 4.9 11 11 11s11-4.9 11-11v-4c22.3 19 49.2 31.8 78 37l28 2c49 0 95.4-21.6 127-59 3.7-4.5 3.2-11-1-15-4.4-4.2-11.4-3.9-15.5.5zM347 93h-4c-6.1 0-11 4.9-11 11s4.9 11 11 11h30c6 .6 11.4-3.9 12-9.9V73c0-6.1-4.9-11-11-11s-11 4.9-11 11v4c-22.3-19-49.2-31.8-78-37l-28-2c-49.3-.3-96.2 21.3-128 59-3.9 4.7-3.3 11.6 1.4 15.5.2.2.4.3.6.5 4.4 4.2 11.4 3.9 15.5-.5l.5-.5c50.2-60 139.4-68.4 200-19z"/></svg>