<svg xmlns="http://www.w3.org/2000/svg" viewBox="0 0 198.2 38.3"><path d="M198.2 0h-25.4l-1.4 6.7h4.3l.5-2.3h6l-2.1 10.3h-3.8l-.9 4.1h12.4l.9-4.1h-3.8L187 4.4h6l-.5 2.3h4.3l1.4-6.7zM56.3 4.3l.9-4.3H45.7l-.9 4.3h2.7l-4.4 2.5h-5l.5-2.5h2.7l.9-4.3h-11l-.9 4.3H33l-2.1 10.1h-2.7l-.9 4.4h11l.9-4.4h-2.7l.7-3.2h4.9l3.7 3.2h-3l-.9 4.4h11.5l.9-4.4h-1.7L47.2 9l7.3-4.7h1.8zm-48.1 1H2.3l.6-3L5.8 0h20.8l1.8 2.3-.9 4.3h-5.9l.5-2.4H8.5l-.3 1.1zm12.3 6.8l-.5 2.3H6.3l.2-1.2H.7L0 16.5l1.8 2.3h20.8l2.9-2.4.9-4.3h-5.9zm57.4-6.8l.2-1.1H64.6l-2.1 10.1h13.6l.2-1.2h5.9l-.7 3.1-2.9 2.4H57.9l-1.8-2.3L59 2.4 61.9 0h20.8l1.8 2.3-.6 3.1h-6v-.1zm36.2-1L115 0H87.3l-.9 4.3H89l-2.1 10.1h-2.7l-.9 4.4h11l.9-4.4h-2.7l2.1-10.1h11l-2.1 10.1h-2.7l-.9 4.4H111l.9-4.4h-2.7l2.1-10.1h2.8zM142.7 0l-1.1 5.5h-5.9l.3-1.3h-11l-.7 3.2h6.1l-.8 3.8h-6.1l-.7 3.1h11l.2-1.2h5.9l-1.1 5.5h-25.4l.9-4.4h3.1l2.1-10.1h-3.1l.9-4.3h25.4V0zm22.4 12.4l3.2-2.4 1.6-7.6-2.1-2.4H145l-.9 4.3h2L144 14.4h-2l-.9 4.4h9.8l.9-4.4h-2l.4-2h14.9zm-13.2-8.1h11.8l.9 1-.4 2.1-1.2.8h-11.9l.8-3.9z" fill-rule="evenodd" clip-rule="evenodd" fill="#504f53"/><path d="M27.3 7.4h-12l-.8 3.8h12zm11.9 21.3h4l.4-2.1-1.2-1.5H27.6l-2 1.7-2.1 10 1.2 1.5h14.8l2-1.7.4-2.1h-4l-.2.8h-10l1.6-7.5h10l-.1.9zm116.4 6.7l-.6 2.9h7.5l.6-2.9H161l-.4-7.4h1.9l.6-2.9h-16.2l-.6 2.9h2l-3.5 7.4h-2.1l-.6 2.9h7.5l.6-2.9h-1.7l1.2-2.4h7.3l.2 2.4h-1.6zm-4.8-4.8l1.1-2.6h4.9v2.6h-6zm-14 3.1L139 32l1.1-5.3-1.4-1.6h-16.2l-.6 2.8h1.4l-1.6 7.5h-1.4l-.6 2.9h6.8l.6-2.9h-1.5l.3-1.7h10.9zm-9.6-5.7h8.6l.7.8-.3 1.6-.9.6h-8.7l.6-3zm-18.7 7.4l-.6 2.9h7.5l.6-2.9h-2.1l-.4-7.4h1.9l.6-2.9H99.8l-.6 2.9h2l-3.5 7.4h-2.1l-.6 2.9h7.5l.6-2.9h-1.7l1.2-2.4h7.3l.2 2.4h-1.6zm-4.7-4.8l1.1-2.6h4.9v2.6h-6zm-11.1-2.3l.7-3.2h-6.5l-4.4 3.6-2.9-3.6H73l-.7 3.2H74l-1.5 7.1h-1.6l-.6 2.9h7l.6-2.9h-1.4l1.3-6.4 3.7 4.3 5.6-4.4-1.4 6.5h-1.4l-.6 2.9h6.9l.6-2.9h-1.6l1.5-7.1h1.6zm-33.6 7.1l-.6 2.9H66l.6-2.9h-2.1l-.4-7.4H66l.6-2.9H50.4l-.6 2.9h2l-3.5 7.4h-2.1l-.6 2.9H53l.6-2.9h-1.7l1.2-2.4h7.3l.2 2.4h-1.5zm-4.8-4.8l1.1-2.6h5v2.6h-6.1z" fill-rule="evenodd" clip-rule="evenodd" fill="#c90026"/></svg>