<?xml version="1.0"?>
<svg xmlns="http://www.w3.org/2000/svg" xmlns:xlink="http://www.w3.org/1999/xlink" xmlns:svgjs="http://svgjs.com/svgjs" version="1.1" width="512" height="512" x="0" y="0" viewBox="0 0 64 64" style="enable-background:new 0 0 512 512" xml:space="preserve" class=""><g><g xmlns="http://www.w3.org/2000/svg" id="Support_service" data-name="Support service"><path d="M61.148,44.9a3.995,3.995,0,0,0-5.458-1.469l-9.751,5.629a3.964,3.964,0,0,0-2.259-1.629l-14.92-4a7,7,0,0,0-3.51-.03L20,44.719V43a1,1,0,0,0-1-1H11a1,1,0,0,0-1,1v1H3a1,1,0,0,0-1,1V59a1,1,0,0,0,1,1h7v1a1,1,0,0,0,1,1h8a1,1,0,0,0,1-1V59.618l1.286.643a7.027,7.027,0,0,0,3.13.739H39.393a7.011,7.011,0,0,0,3.5-.938l16.8-9.7A4.011,4.011,0,0,0,61.148,44.9ZM4,58V46h6V58Zm14,2H12V44h6ZM58.69,48.634l-16.8,9.7a5,5,0,0,1-2.5.67H24.416a5.027,5.027,0,0,1-2.235-.528L20,57.382v-10.6l5.734-1.434a5.025,5.025,0,0,1,2.508.021l14.92,4a2,2,0,1,1-1.035,3.863L30.2,50.034a1,1,0,0,0-.517,1.932l11.925,3.2a4.043,4.043,0,0,0,1.042.138,3.952,3.952,0,0,0,3.965-4.317l10.072-5.815a2.035,2.035,0,0,1,2.726.732A2.008,2.008,0,0,1,58.69,48.634Z" fill="#ffffff" data-original="#000000" style=""/><path d="M29,31h3.753c.057.144.114.283.174.418l-2.654,2.655a1,1,0,0,0,0,1.414l4.24,4.24a1,1,0,0,0,1.414,0l2.654-2.654c.136.059.275.117.419.174V41a1,1,0,0,0,1,1h6a1,1,0,0,0,1-1V37.247c.144-.057.283-.115.419-.174l2.654,2.654a1.029,1.029,0,0,0,1.414,0l4.24-4.24a1,1,0,0,0,0-1.414l-2.654-2.655c.06-.135.117-.274.174-.418H57a1,1,0,0,0,1-1V24a1,1,0,0,0-1-1H53.247c-.057-.144-.114-.283-.174-.419l2.654-2.654a1,1,0,0,0,0-1.414l-4.24-4.24a1,1,0,0,0-1.414,0l-2.654,2.654c-.136-.059-.275-.117-.419-.174V13a1,1,0,0,0-1-1H40a1,1,0,0,0-1,1v3.753c-.144.057-.283.115-.419.174l-2.654-2.654a1.029,1.029,0,0,0-1.414,0l-4.24,4.24a1,1,0,0,0,0,1.414l2.654,2.654c-.06.136-.117.275-.174.419H29a1,1,0,0,0-1,1v6A1,1,0,0,0,29,31Zm1-6h3.46a1,1,0,0,0,.952-.694,8.225,8.225,0,0,1,.605-1.446,1,1,0,0,0-.17-1.187L32.4,19.22l2.825-2.826,2.453,2.453a1,1,0,0,0,1.188.17,8.112,8.112,0,0,1,1.446-.605A1,1,0,0,0,41,17.46V14h4v3.46a1,1,0,0,0,.693.952,8.112,8.112,0,0,1,1.446.605,1,1,0,0,0,1.188-.17l2.453-2.453,2.825,2.826-2.452,2.453a1,1,0,0,0-.17,1.187,8.225,8.225,0,0,1,.605,1.446A1,1,0,0,0,52.54,25H56v4H52.54a1,1,0,0,0-.952.694,8.225,8.225,0,0,1-.605,1.446,1,1,0,0,0,.17,1.187l2.452,2.453L50.78,37.606l-2.453-2.453a1,1,0,0,0-1.188-.17,8.112,8.112,0,0,1-1.446.605A1,1,0,0,0,45,36.54V40H41V36.54a1,1,0,0,0-.693-.952,8.112,8.112,0,0,1-1.446-.605,1,1,0,0,0-1.188.17L35.22,37.606,32.4,34.78l2.452-2.453a1,1,0,0,0,.17-1.187,8.225,8.225,0,0,1-.605-1.446A1,1,0,0,0,33.46,29H30Z" fill="#ffffff" data-original="#000000" style=""/><path d="M43,33a6,6,0,1,1,6-6A6.006,6.006,0,0,1,43,33Zm0-10a4,4,0,1,0,4,4A4,4,0,0,0,43,23Z" fill="#ffffff" data-original="#000000" style=""/><path d="M18,27H14a1,1,0,0,1-1-1V24.244l-1.243,1.243a1,1,0,0,1-1.414,0l-2.83-2.83a1,1,0,0,1,0-1.414L8.756,20H7a1,1,0,0,1-1-1V15a1,1,0,0,1,1-1H8.756L7.513,12.757a1,1,0,0,1,0-1.414l2.83-2.83a1,1,0,0,1,1.414,0L13,9.756V8a1,1,0,0,1,1-1h4a1,1,0,0,1,1,1V9.756l1.243-1.243a1,1,0,0,1,1.414,0l2.83,2.83a1,1,0,0,1,0,1.414L23.244,14H25a1,1,0,0,1,1,1v4a1,1,0,0,1-1,1H23.244l1.243,1.243a1,1,0,0,1,0,1.414l-2.83,2.83a1,1,0,0,1-1.414,0L19,24.244V26A1,1,0,0,1,18,27Zm-3-2h2V22.65a1,1,0,0,1,.713-.958,2.306,2.306,0,0,0,.4-.168,1,1,0,0,1,1.171.179l1.663,1.663,1.416-1.416L20.7,20.287a1,1,0,0,1-.179-1.171,2.234,2.234,0,0,0,.169-.406A1,1,0,0,1,21.65,18H24V16H21.65a1,1,0,0,1-.957-.71,2.234,2.234,0,0,0-.169-.406,1,1,0,0,1,.179-1.171l1.663-1.663L20.95,10.634,19.287,12.3a1,1,0,0,1-1.171.179,2.306,2.306,0,0,0-.4-.168A1,1,0,0,1,17,11.35V9H15v2.35a1,1,0,0,1-.713.958,2.306,2.306,0,0,0-.4.168,1,1,0,0,1-1.171-.179L11.05,10.634,9.634,12.05,11.3,13.713a1,1,0,0,1,.179,1.171,2.234,2.234,0,0,0-.169.406,1,1,0,0,1-.957.71H8v2h2.35a1,1,0,0,1,.957.71,2.234,2.234,0,0,0,.169.406,1,1,0,0,1-.179,1.171L9.634,21.95l1.416,1.416L12.713,21.7a1,1,0,0,1,1.171-.179,2.306,2.306,0,0,0,.4.168A1,1,0,0,1,15,22.65Z" fill="#ffffff" data-original="#000000" style=""/><path d="M16,21a4,4,0,1,1,4-4A4,4,0,0,1,16,21Zm0-6a2,2,0,1,0,2,2A2,2,0,0,0,16,15Z" fill="#ffffff" data-original="#000000" style=""/></g></g></svg>
