<?xml version="1.0" encoding="utf-8"?>
<!-- Generator: Adobe Illustrator 24.2.0, SVG Export Plug-In . SVG Version: 6.00 Build 0)  -->
<svg version="1.1" id="Layer_1" xmlns="http://www.w3.org/2000/svg" xmlns:xlink="http://www.w3.org/1999/xlink" x="0px" y="0px"
	 viewBox="0 0 198.2 38.3" style="enable-background:new 0 0 198.2 38.3;" xml:space="preserve">
<style type="text/css">
	.st0{fill:#818084;}
	.st1{fill-rule:evenodd;clip-rule:evenodd;fill:#504F53;}
	.st2{fill-rule:evenodd;clip-rule:evenodd;fill:#C90026;}
</style>
<g>
	<path class="st1" d="M198.2,0h-25.4l-1.4,6.7h4.3l0.5-2.3h6l-2.1,10.3h-3.8l-0.9,4.1h12.4l0.9-4.1h-3.8l2.1-10.3h6l-0.5,2.3h4.3
		L198.2,0L198.2,0z M56.3,4.3L57.2,0H45.7l-0.9,4.3h2.7l-4.4,2.5h-5l0.5-2.5h2.7L42.2,0h-11l-0.9,4.3h2.7l-2.1,10.1h-2.7l-0.9,4.4
		h11l0.9-4.4h-2.7l0.7-3.2h4.9l3.7,3.2h-3l-0.9,4.4h11.5l0.9-4.4h-1.7L47.2,9l7.3-4.7H56.3L56.3,4.3z M8.2,5.3H2.3l0.6-3L5.8,0h20.8
		l1.8,2.3l-0.9,4.3h-5.9l0.5-2.4H8.5L8.2,5.3L8.2,5.3z M20.5,12.1L20,14.4H6.3l0.2-1.2H0.7L0,16.5l1.8,2.3h20.8l2.9-2.4l0.9-4.3
		H20.5L20.5,12.1z M77.9,5.3l0.2-1.1H64.6l-2.1,10.1h13.6l0.2-1.2h5.9l-0.7,3.1l-2.9,2.4H57.9l-1.8-2.3L59,2.4L61.9,0h20.8l1.8,2.3
		l-0.6,3.1H77.9L77.9,5.3z M114.1,4.3L115,0c-9.2,0-18.5,0-27.7,0l-0.9,4.3H89l-2.1,10.1h-2.7l-0.9,4.4h11l0.9-4.4h-2.7l2.1-10.1h11
		l-2.1,10.1h-2.7l-0.9,4.4h11.1l0.9-4.4h-2.7l2.1-10.1H114.1L114.1,4.3z M142.7,0l-1.1,5.5h-5.9l0.3-1.3h-11l-0.7,3.2h6.1l-0.8,3.8
		h-6.1l-0.7,3.1h11l0.2-1.2h5.9l-1.1,5.5h-25.4l0.9-4.4h3.1l2.1-10.1h-3.1l0.9-4.3H142.7L142.7,0z M165.1,12.4l3.2-2.4l1.6-7.6
		L167.8,0H145l-0.9,4.3h2L144,14.4h-2l-0.9,4.4h9.8l0.9-4.4h-2l0.4-2H165.1L165.1,12.4z M151.9,4.3h11.8l0.9,1l-0.4,2.1L163,8.2
		h-11.9L151.9,4.3z"/>
	<polygon class="st2" points="27.3,7.4 15.3,7.4 14.5,11.2 26.5,11.2 	"/>
	<path class="st2" d="M39.2,28.7h4l0.4-2.1l-1.2-1.5H27.6l-2,1.7l-2.1,10l1.2,1.5h14.8l2-1.7l0.4-2.1h-4l-0.2,0.8h-10l1.6-7.5h10
		L39.2,28.7L39.2,28.7z M155.6,35.4l-0.6,2.9h7.5l0.6-2.9H161l-0.4-7.4h1.9l0.6-2.9h-16.2l-0.6,2.9h2l-3.5,7.4h-2.1l-0.6,2.9h7.5
		l0.6-2.9h-1.7l1.2-2.4h7.3l0.2,2.4H155.6L155.6,35.4z M150.8,30.6l1.1-2.6h4.9l0,2.6H150.8L150.8,30.6z M136.8,33.7L139,32l1.1-5.3
		l-1.4-1.6h-16.2l-0.6,2.8h1.4l-1.6,7.5h-1.4l-0.6,2.9h6.8l0.6-2.9h-1.5l0.3-1.7H136.8L136.8,33.7z M127.2,28h8.6l0.7,0.8l-0.3,1.6
		l-0.9,0.6h-8.7L127.2,28L127.2,28z M108.5,35.4l-0.6,2.9h7.5l0.6-2.9h-2.1l-0.4-7.4h1.9l0.6-2.9H99.8L99.2,28h2l-3.5,7.4h-2.1
		L95,38.3h7.5l0.6-2.9h-1.7l1.2-2.4h7.3l0.2,2.4H108.5L108.5,35.4z M103.8,30.6l1.1-2.6h4.9l0,2.6H103.8L103.8,30.6z M92.7,28.3
		l0.7-3.2h-6.5l-4.4,3.6l-2.9-3.6H73l-0.7,3.2H74l-1.5,7.1h-1.6l-0.6,2.9h7l0.6-2.9h-1.4l1.3-6.4l3.7,4.3l5.6-4.4l-1.4,6.5h-1.4
		l-0.6,2.9h6.9l0.6-2.9h-1.6l1.5-7.1H92.7L92.7,28.3z M59.1,35.4l-0.6,2.9h7.5l0.6-2.9h-2.1L64.1,28H66l0.6-2.9H50.4L49.8,28h2
		l-3.5,7.4h-2.1l-0.6,2.9H53l0.6-2.9h-1.7l1.2-2.4h7.3l0.2,2.4H59.1L59.1,35.4z M54.3,30.6l1.1-2.6h5l0,2.6H54.3z"/>
</g>
</svg>
